<?xml version="1.0" ?><svg viewBox="0 0 128 128" xmlns="http://www.w3.org/2000/svg"><defs><style>.cls-1{fill:#2e2f42;}</style></defs><title/><g data-name="Layer 2" id="Layer_2"><g id="Export"><path class="cls-1" d="M64,3A61,61,0,1,1,3,64,61.06,61.06,0,0,1,64,3m0-3a64,64,0,1,0,64,64A64,64,0,0,0,64,0Z"/><path class="cls-1" d="M46.24,50.72a1.49,1.49,0,0,0-2.09.37L42.78,53l-1.36-1.95A1.5,1.5,0,1,0,39,52.81l2,2.84L39,58.5a1.49,1.49,0,0,0,.37,2.08,1.45,1.45,0,0,0,.86.28,1.52,1.52,0,0,0,1.23-.64l1.36-1.95,1.37,1.95a1.49,1.49,0,0,0,2.09.36,1.48,1.48,0,0,0,.36-2.08l-2-2.85,2-2.84A1.49,1.49,0,0,0,46.24,50.72Z"/><path class="cls-1" d="M87.74,55.65l2-2.84a1.5,1.5,0,0,0-2.46-1.72L85.91,53l-1.36-1.95a1.5,1.5,0,1,0-2.46,1.72l2,2.84-2,2.85a1.49,1.49,0,0,0,.37,2.08,1.45,1.45,0,0,0,.86.28,1.52,1.52,0,0,0,1.23-.64l1.36-1.95,1.37,1.95a1.52,1.52,0,0,0,1.23.64,1.45,1.45,0,0,0,.86-.28,1.49,1.49,0,0,0,.37-2.08Z"/><path class="cls-1" d="M86.26,87.76H41.74a1.5,1.5,0,1,1,0-3H86.26a1.5,1.5,0,0,1,0,3Z"/></g></g></svg>